<?xml version="1.0" encoding="UTF-8"?>
<!--
  智枢科技 / Zhishu AI — Symbol Only (Grid Mark)
  Use: app icons, social profiles, watermarks, standalone contexts
  Minimum size: 24×24px
-->
<svg xmlns="http://www.w3.org/2000/svg" viewBox="0 0 80 80" width="80" height="80">
  <g transform="translate(40, 40)">
    <!-- Row 1 -->
    <rect x="-33" y="-33" width="18" height="18" rx="2.5" fill="none" stroke="#546578" stroke-width="1.6"/>
    <rect x="-9" y="-33" width="18" height="18" rx="2.5" fill="none" stroke="#546578" stroke-width="1.6"/>
    <rect x="15" y="-33" width="18" height="18" rx="2.5" fill="none" stroke="#546578" stroke-width="1.6"/>
    <!-- Row 2 -->
    <rect x="-33" y="-9" width="18" height="18" rx="2.5" fill="none" stroke="#546578" stroke-width="1.6"/>
    <rect x="-9" y="-9" width="18" height="18" rx="2.5" fill="#00C9A7"/>
    <rect x="-5" y="-5" width="10" height="10" rx="1.5" fill="#00DDB5" opacity="0.3"/>
    <rect x="15" y="-9" width="18" height="18" rx="2.5" fill="none" stroke="#546578" stroke-width="1.6"/>
    <!-- Row 3 -->
    <rect x="-33" y="15" width="18" height="18" rx="2.5" fill="none" stroke="#546578" stroke-width="1.6"/>
    <rect x="-9" y="15" width="18" height="18" rx="2.5" fill="none" stroke="#546578" stroke-width="1.6"/>
    <rect x="15" y="15" width="18" height="18" rx="2.5" fill="none" stroke="#546578" stroke-width="1.6"/>
    
    <!-- Integration traces -->
    <rect x="-11" y="-1" width="2" height="2" rx="0.5" fill="#00C9A7" opacity="0.5"/>
    <rect x="9" y="-1" width="2" height="2" rx="0.5" fill="#00C9A7" opacity="0.5"/>
    <rect x="-1" y="-11" width="2" height="2" rx="0.5" fill="#00C9A7" opacity="0.5"/>
    <rect x="-1" y="9" width="2" height="2" rx="0.5" fill="#00C9A7" opacity="0.5"/>
  </g>
</svg>
