<?xml version="1.0" standalone="no"?>
<!DOCTYPE svg PUBLIC "-//W3C//DTD SVG 20010904//EN"
 "http://www.w3.org/TR/2001/REC-SVG-20010904/DTD/svg10.dtd">
<svg version="1.0" xmlns="http://www.w3.org/2000/svg"
 width="740.000000pt" height="706.000000pt" viewBox="0 0 740.000000 706.000000"
 preserveAspectRatio="xMidYMid meet">
<metadata>
Created by potrace 1.16, written by Peter Selinger 2001-2019
</metadata>
<g transform="translate(0.000000,706.000000) scale(0.100000,-0.100000)"
fill="#000000" stroke="none">
<path d="M0 3530 l0 -3530 3700 0 3700 0 0 3530 0 3530 -3700 0 -3700 0 0
-3530z m3955 2779 c357 -99 964 -266 1085 -298 108 -29 251 -68 415 -113 39
-10 93 -25 120 -33 28 -7 104 -29 170 -48 66 -19 192 -53 280 -77 180 -47 469
-128 590 -165 44 -13 99 -30 123 -37 23 -7 42 -16 42 -20 0 -5 -628 -8 -1394
-8 l-1395 0 -43 29 c-65 44 -128 61 -222 61 -132 0 -225 -41 -260 -113 -20
-42 -21 -136 -2 -180 33 -79 132 -127 263 -127 128 0 219 46 263 131 16 29 26
37 57 42 52 9 3136 9 3235 1 43 -4 77 -8 76 -10 -5 -4 -421 -132 -442 -136
-11 -1 -22 -14 -26 -28 -3 -14 -4 -150 -2 -302 4 -266 5 -278 24 -284 25 -8
78 -90 78 -121 0 -36 -25 -87 -58 -119 l-30 -29 18 -85 c101 -471 150 -713
150 -745 0 -21 -1 -21 -237 -18 -131 2 -243 3 -250 3 -15 0 -12 18 44 305 25
127 49 250 54 275 5 25 18 82 29 127 26 106 26 149 0 163 -28 15 -51 65 -52
111 0 39 18 99 31 99 3 0 19 11 34 25 l27 26 0 269 c0 209 -3 270 -12 270 -7
0 -58 -14 -113 -31 -55 -17 -113 -34 -130 -39 -16 -4 -102 -29 -190 -55 -88
-26 -189 -56 -225 -66 -36 -9 -117 -34 -180 -53 -63 -20 -153 -48 -200 -62
-47 -15 -96 -30 -110 -34 -14 -5 -65 -20 -115 -35 -49 -14 -110 -32 -135 -40
-112 -34 -913 -273 -1075 -320 -44 -13 -156 -46 -250 -75 -93 -29 -205 -61
-247 -73 l-77 -21 -128 38 c-171 50 -612 184 -853 258 -107 33 -267 82 -355
108 -309 93 -401 121 -505 155 -181 58 -1227 373 -1530 461 -148 43 -255 76
-263 81 -25 15 6 25 328 108 99 26 252 67 340 92 88 25 169 47 180 50 11 3
105 30 208 59 103 30 263 75 355 100 294 79 312 84 350 98 20 8 73 23 117 35
44 12 244 66 445 122 201 56 374 103 385 106 11 3 63 18 115 34 97 29 255 72
415 115 226 59 354 94 376 103 29 11 26 12 284 -60z m-2295 -1689 c204 -64
259 -80 535 -164 121 -37 279 -85 350 -107 72 -22 144 -44 160 -49 17 -4 91
-27 165 -50 74 -23 194 -59 265 -80 72 -22 207 -62 300 -90 273 -83 255 -80
316 -63 30 8 68 18 84 23 17 4 75 22 130 40 55 17 147 45 205 62 157 46 277
81 460 137 91 27 282 84 425 126 289 85 444 132 677 206 87 28 165 49 173 47
14 -3 16 -120 16 -1158 -1 -1189 -2 -1225 -40 -1405 -92 -428 -370 -796 -765
-1009 -400 -217 -841 -316 -1407 -316 -577 0 -1114 124 -1494 345 -172 100
-384 294 -486 447 -119 176 -182 328 -237 568 l-26 115 -3 1204 c-2 663 -2
1210 1 1218 3 7 11 11 18 8 7 -2 87 -27 178 -55z"/>
<path d="M2944 3527 c-8 -4 -14 -13 -14 -18 0 -6 -106 -288 -236 -627 -330
-863 -333 -871 -360 -923 -31 -62 -102 -124 -160 -138 l-45 -12 3 -51 3 -51
269 2 c149 1 273 4 278 7 4 3 8 25 8 49 0 48 -4 51 -80 61 -59 8 -96 40 -106
89 -8 45 0 79 52 216 24 64 44 121 44 127 0 19 32 22 248 22 263 0 290 -4 304
-39 44 -110 98 -288 98 -321 0 -47 -32 -85 -81 -94 -100 -20 -90 -12 -87 -69
l3 -52 1085 3 c597 2 1088 7 1092 10 3 4 10 147 14 319 l7 312 -35 6 c-48 9
-90 3 -99 -15 -4 -8 -17 -49 -30 -90 -62 -211 -161 -343 -290 -388 -92 -32
-197 -39 -278 -18 -87 22 -124 53 -153 123 l-23 58 1 525 c1 550 11 736 42
800 20 40 64 65 137 77 l50 8 3 48 3 47 -403 -2 -403 -3 -3 -24 c-8 -53 4 -68
66 -80 76 -15 125 -55 147 -120 14 -43 15 -119 13 -682 -4 -687 -4 -681 -60
-745 -96 -109 -262 -74 -337 72 -12 22 -50 125 -87 230 -36 104 -80 232 -99
284 -18 52 -81 232 -140 400 -59 168 -124 355 -145 415 -21 61 -48 139 -60
175 -12 36 -26 70 -31 75 -12 12 -104 13 -125 2z m-46 -579 c23 -29 195 -515
186 -529 -3 -5 -98 -9 -211 -9 l-206 0 6 43 c11 75 187 507 207 507 4 0 12 -6
18 -12z"/>
</g>
</svg>
